PathFileType	3	(X/Y/Z)	C:\Users\dbak576\Desktop\Duncan Bakke Modelling Files\Output\AB08\_12Mar_ss_12ms_01\AB08_12Mar_ss_12ms_01.trc
DataRate	CameraRate	NumFrames	NumMarkers	Units	OrigDataRate	OrigDataStartFrame	OrigNumFrames
200.0	200.0	4	42	mm	200.0	5714	3036	
Frame#	Time	LASI			RASI			LPSI			RPSI			LTH1			LTH2			LTH3			LTH4			LMFC			LLFC			LTB1			LTB2			LTB3			LTB4			LMMAL			LLMAL			LCAL			LToe			LMT1			LMT5			RTH1			RTH2			RTH3			RTH4			RMFC			RLFC			RTB1			RTB2			RTB3			RTB4			RMMAL			RLMAL			RCAL			RToe			RMT1			RMT5			C7			T10			LACR1			RACR1			CLAV			RBack			
		X1	Y1	Z1	X2	Y2	Z2	X3	Y3	Z3	X4	Y4	Z4	X5	Y5	Z5	X6	Y6	Z6	X7	Y7	Z7	X8	Y8	Z8	X9	Y9	Z9	X10	Y10	Z10	X11	Y11	Z11	X12	Y12	Z12	X13	Y13	Z13	X14	Y14	Z14	X15	Y15	Z15	X16	Y16	Z16	X17	Y17	Z17	X18	Y18	Z18	X19	Y19	Z19	X20	Y20	Z20	X21	Y21	Z21	X22	Y22	Z22	X23	Y23	Z23	X24	Y24	Z24	X25	Y25	Z25	X26	Y26	Z26	X27	Y27	Z27	X28	Y28	Z28	X29	Y29	Z29	X30	Y30	Z30	X31	Y31	Z31	X32	Y32	Z32	X33	Y33	Z33	X34	Y34	Z34	X35	Y35	Z35	X36	Y36	Z36	X37	Y37	Z37	X38	Y38	Z38	X39	Y39	Z39	X40	Y40	Z40	X41	Y41	Z41	X42	Y42	Z42	
5714	28.56	353.50958	961.58606	-909.2572	600.68726	958.17468	-897.68976	412.98383	971.49603	-685.07104	536.46057	964.14636	-676.29474	337.19394	706.4325	-1000.2247	330.85461	668.65424	-990.97565	380.91965	627.62067	-1001.7211	362.31125	664.27301	-1003.437	457.33014	523.44025	-966.0741	331.06735	516.13879	-945.55359	315.25357	410.58923	-932.7384	323.76001	327.09427	-923.84784	344.55817	326.69122	-973.47339	333.68643	365.40677	-966.54071	455.85385	119.42781	-939.95398	369.84271	111.03821	-921.45782	416.62213	53.824677	-844.47058	418.78763	42.862499	-1149.7694	453.92764	46.546738	-1060.7986	332.51764	41.028625	-1037.1656	639.28174	663.62604	-910.62408	637.36224	598.31018	-900.11096	676.76459	582.75696	-855.47662	677.52905	639.51355	-868.67981	561.0799	453.64697	-835.47522	675.32935	488.97736	-783.70758	676.87677	396.80304	-709.84973	661.70422	364.39981	-691.87097	645.13739	329.34982	-659.2027	666.76257	366.21649	-626.39996	534.78625	230.79388	-489.18851	614.07172	262.39459	-455.73056	545.08276	302.5502	-388.89435	591.26331	15.910283	-470.40009	545.99762	96.811272	-440.92114	655.46442	131.22896	-422.94431	439.23984	1473.9061	-729.38391	450.26819	1218.3365	-670.60187	270.18854	1434.5475	-791.71515	596.80237	1451.2134	-788.07813	439.21335	1407.597	-883.69971	570.85535	1371.2203	-678.13593
5715	28.565	352.80392	962.61029	-908.72931	599.83679	959.38599	-897.52582	412.17813	972.47333	-684.80634	535.37891	964.93384	-675.72815	336.53708	705.91248	-997.87152	329.90466	668.34399	-987.54773	380.33157	627.24542	-998.64459	361.53003	663.87964	-1000.7386	457.51846	523.48328	-961.1297	330.83362	516.1925	-941.52344	314.64447	410.53378	-927.0592	323.6315	326.90619	-917.76172	343.71399	326.46658	-967.84039	332.99478	365.13177	-960.86102	455.85812	119.40099	-934.01941	369.9137	111.05177	-915.42444	416.58344	53.853031	-838.44836	418.71323	42.746956	-1143.7169	453.95163	46.495319	-1054.7039	332.22498	41.207531	-1031.1232	639.36115	665.3371	-914.20135	638.10065	600.29895	-904.71082	677.82819	584.06897	-860.25751	677.98199	641.10498	-872.50323	562.21863	455.07639	-843.22491	676.4397	489.75858	-790.71765	677.95795	397.85062	-717.14648	662.3551	365.62698	-699.18799	645.46893	330.91553	-666.19	667.54449	367.60254	-633.65198	535.08551	233.54587	-495.04117	614.41272	265.15253	-461.59824	545.31335	305.88959	-395.02362	591.4278	19.751827	-476.48102	546.24768	99.910896	-446.37982	655.66846	134.33356	-428.47751	438.53314	1474.908	-729.25024	449.11588	1219.332	-670.59344	269.61182	1435.8683	-792.03357	596.22461	1452.1296	-787.63617	438.73721	1408.7319	-883.53876	569.97314	1372.3096	-677.72528
5716	28.57	351.97803	963.63727	-908.33221	599.09308	960.54565	-897.2038	411.35397	973.54053	-684.45886	534.38275	965.70404	-675.19611	336.0047	705.55676	-995.42236	329.49384	667.92999	-985.43121	380.07336	627.0575	-995.63776	361.11542	663.55121	-997.90027	457.41757	523.41833	-956.24133	330.71219	516.22308	-937.4259	314.51559	410.22348	-921.33282	323.47031	326.79727	-911.98431	342.91373	326.07864	-961.8587	332.17346	364.82516	-955.19086	455.93439	119.461	-928.11157	369.93719	111.04977	-909.45337	416.56769	53.949734	-832.4024	418.76254	42.665787	-1137.6521	453.56787	46.351723	-1048.6323	332.17902	41.157463	-1025.2365	639.448	667.39294	-917.61792	638.8089	602.26355	-909.21844	678.3161	585.60236	-865.08057	678.27679	642.76611	-876.16876	562.9613	456.80359	-850.3844	677.65393	490.87021	-797.53912	678.85468	399.06955	-724.61151	662.99054	367.0014	-706.39172	645.65057	332.19409	-673.36945	668.42377	369.23245	-640.99994	535.28326	236.49112	-501.44363	614.68158	268.11667	-467.32227	545.43652	308.79401	-401.08032	591.70953	23.597904	-484.11801	546.28784	103.08274	-453.27829	656.10431	137.48199	-434.90955	437.85931	1476.0004	-729.1319	447.95221	1220.3986	-670.37079	269.11737	1437.1855	-792.45386	595.67712	1453.0012	-787.1333	438.444	1409.8192	-883.41833	569.07208	1373.3375	-677.34088
5717	28.575	351.21741	964.66663	-908.06299	598.55396	961.74829	-896.94916	410.56516	974.53149	-683.97864	533.32397	966.44733	-674.58478	335.60403	705.1911	-992.88251	329.27005	667.72601	-982.62268	379.88992	626.81909	-992.46045	360.7688	663.27734	-995.04004	457.29822	523.45599	-951.698	330.41101	516.17688	-933.12939	314.72318	410.40634	-916.29089	323.83725	326.86121	-906.55377	342.22888	325.85782	-956.63147	331.64896	364.61923	-949.68286	455.94611	119.39849	-922.27478	369.9953	111.03268	-903.42609	416.57764	54.018101	-826.31732	418.69073	42.478142	-1131.6003	453.91641	46.357586	-1042.6169	332.17389	41.072277	-1019.0732	640.24329	670.16968	-921.03711	639.43921	604.50073	-913.68451	678.96832	587.3609	-869.83569	678.6507	644.62122	-879.96033	563.22284	458.4389	-855.39056	678.81866	492.31317	-804.33679	679.62946	400.49286	-732.17426	663.54974	368.50092	-713.75043	646.02649	333.91418	-680.69586	669.16595	370.85162	-648.35992	534.9967	239.6438	-508.12085	614.8595	271.16418	-473.39621	545.54053	311.26184	-407.19028	591.74976	26.956032	-492.72205	546.31934	106.01548	-461.2132	656.27533	140.29716	-441.96036	437.18243	1477.0717	-729.07367	446.91721	1221.4801	-670.099	268.63287	1438.5649	-792.83447	595.19379	1453.8605	-786.67609	438.22479	1410.9513	-883.31305	568.2052	1374.3865	-676.94092
